<?xml version="1.0" encoding="UTF-8" standalone="no"?>
<svg
   height="183500.8"
   style="clip-rule:evenodd;fill-rule:evenodd;stroke-linejoin:round;stroke-miterlimit:2"
   version="1.1"
   viewBox="0 0 262143.48 183500.8"
   width="262143.48"
   xml:space="preserve"
   id="svg1"
   sodipodi:docname="5305164_play_video_youtube_youtube logo_icon.svg"
   xmlns:inkscape="http://www.inkscape.org/namespaces/inkscape"
   xmlns:sodipodi="http://sodipodi.sourceforge.net/DTD/sodipodi-0.dtd"
   xmlns="http://www.w3.org/2000/svg"
   xmlns:svg="http://www.w3.org/2000/svg"><defs
     id="defs1" /><sodipodi:namedview
     id="namedview1"
     pagecolor="#ffffff"
     bordercolor="#000000"
     borderopacity="0.25"
     inkscape:showpageshadow="2"
     inkscape:pageopacity="0.0"
     inkscape:pagecheckerboard="0"
     inkscape:deskcolor="#d1d1d1" /><path
     d="m 501.303,-39188.837 c -5.887,-22.03 -23.235,-39.377 -45.265,-45.265 -39.932,-10.7 -200.038,-10.7 -200.038,-10.7 0,0 -160.107,0 -200.039,10.7 -22.026,5.888 -39.377,23.235 -45.264,45.265 C 0,-39148.909 0,-39065.599 0,-39065.599 c 0,0 0,83.308 10.697,123.232 5.887,22.03 23.238,39.382 45.264,45.269 39.932,10.696 200.039,10.696 200.039,10.696 0,0 160.106,0 200.038,-10.696 22.03,-5.887 39.378,-23.239 45.265,-45.269 10.696,-39.924 10.696,-123.232 10.696,-123.232 0,0 0,-83.31 -10.696,-123.238 z m -296.506,200.039 v -153.603 l 133.019,76.802 z"
     style="fill:#ffffff;fill-opacity:1;fill-rule:nonzero"
     id="path1" /></svg>
